<svg xmlns="http://www.w3.org/2000/svg" width="32" height="32" viewBox="0 0 32 32"><g fill="#3b3c3d" stroke-linecap="round" stroke-linejoin="round" color="#000" font-family="sans-serif" transform="matrix(1 0 0 1.00006 -1155 -1092.427)"><path d="M1183.007 1103.866a.5.5 0 100 1c.558 0 .999.442.999 1a.99.99 0 01-1 .996.5.5 0 100 1c1.105 0 1.998-.91 1.994-2 0-1.099-.9-2-1.997-2zM1159.496 1102.363c.676-.01.676 1.01 0 1h-.5c-.558 0-1 .442-1 1 0 .551.427.996 1.004 1h5.746v.997h-5.75a2.015 2.015 0 01-1.996-1.997c0-1.098.901-1.991 2-2zM1164.996 1098.863c-1.099 0-2 .902-2 2 0 1.108.91 1.987 1.994 2a.5.5 0 00.01 0h1.5v-1.004h-1.494c-.565-.01-1.006-.428-1.006-1 0-.558.442-1 1-1h4.25v-.996zM1180.5 1095.863a.5.5 0 100 1h1c.558 0 1 .442 1 1 0 .55-.427.996-1.004 1H1175v.996h6.5a2.015 2.015 0 001.996-1.996c0-1.099-.901-2-2-2z" style="line-height:normal;text-indent:0;text-align:start;text-decoration-line:none;text-decoration-style:solid;text-decoration-color:#000;text-transform:none;isolation:auto;mix-blend-mode:normal" fill-rule="evenodd" overflow="visible"/><path style="line-height:normal;text-indent:0;text-align:start;text-decoration-line:none;text-decoration-style:solid;text-decoration-color:#000;text-transform:none;isolation:auto;mix-blend-mode:normal" d="M1172.98 1094.363a.5.5 0 0 0-.45.313l-3 7.496a.5.5 0 0 0 .018.408l1.643 3.281a2.013 2.013 0 0 0-.455.573l-10.592 5.263a.5.5 0 0 0 .322.94l8.807-1.79a.5.5 0 0 0 .344-.26l1.16-2.222c.117.199.266.374.441.522l-1.18 12.974h-9.542v1h24v-1h-9.543l-1.176-12.927 9.5 4.629a.5.5 0 0 0 .596-.78l-5.25-6a.5.5 0 0 0-.377-.172h-3.899a2.015 2.015 0 0 0-.851-.97v-10.78a.5.5 0 0 0-.516-.498z" overflow="visible"/><path style="line-height:normal;text-indent:0;text-align:start;text-decoration-line:none;text-decoration-style:solid;text-decoration-color:#000;text-transform:none;isolation:auto;mix-blend-mode:normal" fill="#e1e1e6" d="M1172.495 1097.457v7.904c-.142 0-.28.016-.414.045l-1.539-3.072z" overflow="visible"/><path style="line-height:normal;text-indent:0;text-align:start;text-decoration-line:none;text-decoration-style:solid;text-decoration-color:#000;text-transform:none;isolation:auto;mix-blend-mode:normal" fill="#fede31" d="M1172.495 1106.361c.558 0 1 .441 1 1a.994.994 0 0 1-1 1.002c-.558 0-1-.443-1-1.002 0-.559.442-1 1-1z" overflow="visible"/><path style="line-height:normal;text-indent:0;text-align:start;text-decoration-line:none;text-decoration-style:solid;text-decoration-color:#000;text-transform:none;isolation:auto;mix-blend-mode:normal" fill="#e1e1e6" d="M1174.472 1107.611h3.547l3.468 3.967-7.136-3.477c.062-.154.099-.32.12-.49zM1169.84 1107.994l-1 1.918-4.835.982z" overflow="visible"/><path style="line-height:normal;text-indent:0;text-align:start;text-decoration-line:none;text-decoration-style:solid;text-decoration-color:#000;text-transform:none;isolation:auto;mix-blend-mode:normal" fill="#5fe0ed" d="M1172.183 1109.332c.102.016.205.031.312.031.107 0 .21-.015.313-.031l1.138 12.53h-2.902z" overflow="visible"/><path d="M1175 1101.363v1.004h3c.558 0 1 .442 1 1a.991.991 0 0 1-1.002.996H1177a.5.5 0 1 0 0 1h1c1.108 0 2.002-.91 1.998-2 0-1.099-.901-2-2-2z" style="line-height:normal;text-indent:0;text-align:start;text-decoration-line:none;text-decoration-style:solid;text-decoration-color:#000;text-transform:none;isolation:auto;mix-blend-mode:normal" fill-rule="evenodd" overflow="visible"/></g></svg>